<svg width="199" height="48" viewBox="0 0 199 48" fill="none" xmlns="http://www.w3.org/2000/svg">
<path d="M36.7065 11.1631C36.2743 10.7309 35.8421 10.2986 35.4099 9.86642C34.1132 8.48331 32.7301 7.10021 31.0012 6.23577C29.013 5.19844 26.8519 5.45777 24.6908 5.45777C21.406 5.45777 13.1938 5.45777 8.35291 5.45777L11.6378 9.86642C17.6024 9.86642 26.9384 9.86642 31.2606 9.86642C33.0759 9.86642 34.6319 10.2122 36.1014 11.1631C36.3608 11.2495 36.6201 11.2495 36.7065 11.1631Z" fill="#66C61C"/>
<path d="M40.3372 18.2517C39.9049 17.8195 39.4727 17.3873 39.0405 16.955C37.7438 15.5719 36.3608 14.1888 34.6319 13.3244C32.6437 12.2871 30.4826 12.5464 28.3215 12.5464C25.4688 12.5464 18.6397 12.5464 13.7989 12.5464L17.0837 16.955C22.9619 16.955 31.0012 16.955 34.9776 16.955C36.793 16.955 38.349 17.3008 39.8185 18.2517C39.9914 18.3381 40.1643 18.3381 40.3372 18.2517Z" fill="#4CA30D"/>
<path d="M44.4 25.167C43.9678 24.7348 43.5356 24.3025 43.1034 23.8703C41.8067 22.4872 40.4236 21.1041 38.6947 20.2397C36.7065 19.2023 34.5454 19.4617 32.3843 19.4617C29.7045 19.4617 23.8264 19.4617 19.0719 19.4617L22.3568 23.8703C28.0621 23.8703 35.3234 23.8703 38.9541 23.8703C40.7694 23.8703 42.3254 24.2161 43.7949 25.167C44.0542 25.2534 44.2271 25.3399 44.4 25.167Z" fill="#3B7C0F"/>
<path d="M8.00714 36.8368C8.43936 37.269 8.87158 37.7012 9.3038 38.1335C10.6005 39.5166 11.9836 40.8997 13.7124 41.7641C15.7007 42.8014 17.8618 42.5421 20.0229 42.5421H36.3608L33.0759 38.1335C27.1113 38.1335 17.7753 38.1335 13.4531 38.1335C11.6378 38.1335 10.0818 37.7877 8.61225 36.8368C8.35291 36.7504 8.18003 36.7504 8.00714 36.8368Z" fill="#66C61C"/>
<path d="M4.37646 29.7487C4.80868 30.1809 5.24091 30.6131 5.67313 31.0453C6.96979 32.4284 8.35288 33.8116 10.0818 34.676C12.07 35.7133 14.2311 35.454 16.3922 35.454H30.9148L27.6299 31.0453C21.7517 31.0453 13.7124 31.0453 9.73599 31.0453C7.92067 31.0453 6.36467 30.6996 4.89512 29.7487C4.72223 29.6622 4.54935 29.6622 4.37646 29.7487Z" fill="#4CA30D"/>
<path d="M0.399994 22.7465C0.832214 23.1787 1.26443 23.6109 1.69665 24.0431C2.99331 25.4262 4.37642 26.8094 6.1053 27.6738C8.09352 28.7111 10.2546 28.4518 12.4157 28.4518H25.7281L22.4432 24.0431C16.7379 24.0431 9.47662 24.0431 5.84597 24.0431C4.03065 24.0431 2.47465 23.6974 1.0051 22.7465C0.745767 22.66 0.572882 22.66 0.399994 22.7465Z" fill="#3B7C0F"/>
<path d="M54.332 14.0081V34.0001H58.728V25.7401H67.1V22.3241H58.728V17.7041H68.388V14.0081H54.332Z" fill="#101828"/>
<path d="M79.4137 25.2081H72.9457C72.9643 24.9281 73.0203 24.6107 73.1137 24.2561C73.2257 23.9014 73.403 23.5654 73.6457 23.2481C73.907 22.9307 74.243 22.6694 74.6537 22.4641C75.083 22.2401 75.615 22.1281 76.2497 22.1281C77.2203 22.1281 77.939 22.3894 78.4057 22.9121C78.891 23.4347 79.227 24.2001 79.4137 25.2081ZM72.9457 27.7281H83.3897C83.4643 26.6081 83.371 25.5347 83.1097 24.5081C82.8483 23.4814 82.419 22.5667 81.8217 21.7641C81.243 20.9614 80.4963 20.3267 79.5817 19.8601C78.667 19.3747 77.5937 19.1321 76.3617 19.1321C75.2603 19.1321 74.2523 19.3281 73.3377 19.7201C72.4417 20.1121 71.667 20.6534 71.0137 21.3441C70.3603 22.0161 69.8563 22.8187 69.5017 23.7521C69.147 24.6854 68.9697 25.6934 68.9697 26.7761C68.9697 27.8961 69.1377 28.9227 69.4737 29.8561C69.8283 30.7894 70.323 31.5921 70.9577 32.2641C71.5923 32.9361 72.367 33.4587 73.2817 33.8321C74.1963 34.1867 75.223 34.3641 76.3617 34.3641C78.0043 34.3641 79.4043 33.9907 80.5617 33.2441C81.719 32.4974 82.5777 31.2561 83.1377 29.5201H79.6377C79.507 29.9681 79.1523 30.3974 78.5737 30.8081C77.995 31.2001 77.3043 31.3961 76.5017 31.3961C75.3817 31.3961 74.523 31.1067 73.9257 30.5281C73.3283 29.9494 73.0017 29.0161 72.9457 27.7281Z" fill="#101828"/>
<path d="M84.7398 23.9761C84.7958 23.0427 85.0291 22.2681 85.4398 21.6521C85.8504 21.0361 86.3731 20.5414 87.0078 20.1681C87.6424 19.7947 88.3518 19.5334 89.1358 19.3841C89.9384 19.2161 90.7411 19.1321 91.5438 19.1321C92.2718 19.1321 93.0091 19.1881 93.7558 19.3001C94.5024 19.3934 95.1838 19.5894 95.7998 19.8881C96.4158 20.1867 96.9198 20.6067 97.3118 21.1481C97.7038 21.6707 97.8998 22.3707 97.8998 23.2481V30.7801C97.8998 31.4334 97.9371 32.0587 98.0118 32.6561C98.0864 33.2534 98.2171 33.7014 98.4038 34.0001H94.3718C94.2971 33.7761 94.2318 33.5521 94.1758 33.3281C94.1384 33.0854 94.1104 32.8427 94.0918 32.6001C93.4571 33.2534 92.7104 33.7107 91.8518 33.9721C90.9931 34.2334 90.1158 34.3641 89.2198 34.3641C88.5291 34.3641 87.8851 34.2801 87.2878 34.1121C86.6905 33.9441 86.1678 33.6827 85.7198 33.3281C85.2718 32.9734 84.9171 32.5254 84.6558 31.9841C84.4131 31.4427 84.2918 30.7987 84.2918 30.0521C84.2918 29.2307 84.4318 28.5587 84.7118 28.0361C85.0105 27.4947 85.3838 27.0654 85.8318 26.7481C86.2985 26.4307 86.8211 26.1974 87.3998 26.0481C87.9971 25.8801 88.5945 25.7494 89.1918 25.6561C89.7891 25.5627 90.3771 25.4881 90.9558 25.4321C91.5345 25.3761 92.0478 25.2921 92.4958 25.1801C92.9438 25.0681 93.2985 24.9094 93.5598 24.7041C93.8211 24.4801 93.9424 24.1627 93.9238 23.7521C93.9238 23.3227 93.8491 22.9867 93.6998 22.7441C93.5691 22.4827 93.3825 22.2867 93.1398 22.1561C92.9158 22.0067 92.6451 21.9134 92.3278 21.8761C92.0291 21.8201 91.7024 21.7921 91.3478 21.7921C90.5638 21.7921 89.9478 21.9601 89.4998 22.2961C89.0518 22.6321 88.7904 23.1921 88.7158 23.9761H84.7398ZM93.9238 26.9161C93.7558 27.0654 93.5411 27.1867 93.2798 27.2801C93.0371 27.3547 92.7664 27.4201 92.4678 27.4761C92.1878 27.5321 91.8891 27.5787 91.5718 27.6161C91.2545 27.6534 90.9371 27.7001 90.6198 27.7561C90.3211 27.8121 90.0224 27.8867 89.7238 27.9801C89.4438 28.0734 89.1918 28.2041 88.9678 28.3721C88.7624 28.5214 88.5944 28.7174 88.4638 28.9601C88.3331 29.2027 88.2678 29.5107 88.2678 29.8841C88.2678 30.2387 88.3331 30.5374 88.4638 30.7801C88.5944 31.0227 88.7718 31.2187 88.9958 31.3681C89.2198 31.4987 89.4811 31.5921 89.7798 31.6481C90.0784 31.7041 90.3864 31.7321 90.7038 31.7321C91.4878 31.7321 92.0944 31.6014 92.5238 31.3401C92.9531 31.0787 93.2705 30.7707 93.4758 30.4161C93.6811 30.0427 93.8024 29.6694 93.8398 29.2961C93.8958 28.9227 93.9238 28.6241 93.9238 28.4001V26.9161Z" fill="#101828"/>
<path d="M105.186 19.5241V15.1841H101.21V19.5241H98.8019V22.1841H101.21V30.7241C101.21 31.4521 101.331 32.0401 101.574 32.4881C101.817 32.9361 102.143 33.2814 102.554 33.5241C102.983 33.7667 103.469 33.9254 104.01 34.0001C104.57 34.0934 105.158 34.1401 105.774 34.1401C106.166 34.1401 106.567 34.1307 106.978 34.1121C107.389 34.0934 107.762 34.0561 108.098 34.0001V30.9201C107.911 30.9574 107.715 30.9854 107.51 31.0041C107.305 31.0227 107.09 31.0321 106.866 31.0321C106.194 31.0321 105.746 30.9201 105.522 30.6961C105.298 30.4721 105.186 30.0241 105.186 29.3521V22.1841H108.098V19.5241H105.186Z" fill="#101828"/>
<path d="M109.15 14.0081V34.0001H113.126V26.4121C113.126 24.9374 113.368 23.8827 113.854 23.2481C114.339 22.5947 115.123 22.2681 116.206 22.2681C117.158 22.2681 117.82 22.5667 118.194 23.1641C118.567 23.7427 118.754 24.6294 118.754 25.8241V34.0001H122.73V25.0961C122.73 24.2001 122.646 23.3881 122.478 22.6601C122.328 21.9134 122.058 21.2881 121.666 20.7841C121.274 20.2614 120.732 19.8601 120.042 19.5801C119.37 19.2814 118.502 19.1321 117.438 19.1321C116.691 19.1321 115.926 19.3281 115.142 19.7201C114.358 20.0934 113.714 20.7001 113.21 21.5401H113.126V14.0081H109.15Z" fill="#101828"/>
<path d="M134.651 25.2081H128.183C128.202 24.9281 128.258 24.6107 128.351 24.2561C128.463 23.9014 128.641 23.5654 128.883 23.2481C129.145 22.9307 129.481 22.6694 129.891 22.4641C130.321 22.2401 130.853 22.1281 131.487 22.1281C132.458 22.1281 133.177 22.3894 133.643 22.9121C134.129 23.4347 134.465 24.2001 134.651 25.2081ZM128.183 27.7281H138.627C138.702 26.6081 138.609 25.5347 138.347 24.5081C138.086 23.4814 137.657 22.5667 137.059 21.7641C136.481 20.9614 135.734 20.3267 134.819 19.8601C133.905 19.3747 132.831 19.1321 131.599 19.1321C130.498 19.1321 129.49 19.3281 128.575 19.7201C127.679 20.1121 126.905 20.6534 126.251 21.3441C125.598 22.0161 125.094 22.8187 124.739 23.7521C124.385 24.6854 124.207 25.6934 124.207 26.7761C124.207 27.8961 124.375 28.9227 124.711 29.8561C125.066 30.7894 125.561 31.5921 126.195 32.2641C126.83 32.9361 127.605 33.4587 128.519 33.8321C129.434 34.1867 130.461 34.3641 131.599 34.3641C133.242 34.3641 134.642 33.9907 135.799 33.2441C136.957 32.4974 137.815 31.2561 138.375 29.5201H134.875C134.745 29.9681 134.39 30.3974 133.811 30.8081C133.233 31.2001 132.542 31.3961 131.739 31.3961C130.619 31.3961 129.761 31.1067 129.163 30.5281C128.566 29.9494 128.239 29.0161 128.183 27.7281Z" fill="#101828"/>
<path d="M140.145 19.5241V34.0001H144.121V27.4761C144.121 26.8227 144.187 26.2161 144.317 25.6561C144.448 25.0961 144.663 24.6107 144.961 24.2001C145.279 23.7707 145.689 23.4347 146.193 23.1921C146.697 22.9494 147.313 22.8281 148.041 22.8281C148.284 22.8281 148.536 22.8467 148.797 22.8841C149.059 22.9027 149.283 22.9307 149.469 22.9681V19.2721C149.152 19.1787 148.863 19.1321 148.601 19.1321C148.097 19.1321 147.612 19.2067 147.145 19.3561C146.679 19.5054 146.24 19.7201 145.829 20.0001C145.419 20.2614 145.055 20.5881 144.737 20.9801C144.42 21.3534 144.168 21.7641 143.981 22.2121H143.925V19.5241H140.145Z" fill="#101828"/>
<path d="M155.004 30.3041V17.7041H158.14C159.223 17.7041 160.128 17.8627 160.856 18.1801C161.603 18.4787 162.2 18.9174 162.648 19.4961C163.096 20.0747 163.414 20.7747 163.6 21.5961C163.806 22.3987 163.908 23.3041 163.908 24.3121C163.908 25.4134 163.768 26.3467 163.488 27.1121C163.208 27.8774 162.835 28.5027 162.368 28.9881C161.902 29.4547 161.37 29.7907 160.772 29.9961C160.175 30.2014 159.559 30.3041 158.924 30.3041H155.004ZM150.608 14.0081V34.0001H159.232C160.763 34.0001 162.088 33.7481 163.208 33.2441C164.347 32.7214 165.29 32.0121 166.036 31.1161C166.802 30.2201 167.371 29.1561 167.744 27.9241C168.118 26.6921 168.304 25.3481 168.304 23.8921C168.304 22.2307 168.071 20.7841 167.604 19.5521C167.156 18.3201 166.522 17.2934 165.7 16.4721C164.898 15.6507 163.936 15.0347 162.816 14.6241C161.715 14.2134 160.52 14.0081 159.232 14.0081H150.608Z" fill="#101828"/>
<path d="M179.846 25.2081H173.378C173.397 24.9281 173.453 24.6107 173.546 24.2561C173.658 23.9014 173.835 23.5654 174.078 23.2481C174.339 22.9307 174.675 22.6694 175.086 22.4641C175.515 22.2401 176.047 22.1281 176.682 22.1281C177.653 22.1281 178.371 22.3894 178.838 22.9121C179.323 23.4347 179.659 24.2001 179.846 25.2081ZM173.378 27.7281H183.822C183.897 26.6081 183.803 25.5347 183.542 24.5081C183.281 23.4814 182.851 22.5667 182.254 21.7641C181.675 20.9614 180.929 20.3267 180.014 19.8601C179.099 19.3747 178.026 19.1321 176.794 19.1321C175.693 19.1321 174.685 19.3281 173.77 19.7201C172.874 20.1121 172.099 20.6534 171.446 21.3441C170.793 22.0161 170.289 22.8187 169.934 23.7521C169.579 24.6854 169.402 25.6934 169.402 26.7761C169.402 27.8961 169.57 28.9227 169.906 29.8561C170.261 30.7894 170.755 31.5921 171.39 32.2641C172.025 32.9361 172.799 33.4587 173.714 33.8321C174.629 34.1867 175.655 34.3641 176.794 34.3641C178.437 34.3641 179.837 33.9907 180.994 33.2441C182.151 32.4974 183.01 31.2561 183.57 29.5201H180.07C179.939 29.9681 179.585 30.3974 179.006 30.8081C178.427 31.2001 177.737 31.3961 176.934 31.3961C175.814 31.3961 174.955 31.1067 174.358 30.5281C173.761 29.9494 173.434 29.0161 173.378 27.7281Z" fill="#101828"/>
<path d="M193.348 34.0001L198.248 19.5241H194.3L191.248 29.4081H191.192L188.14 19.5241H183.968L188.924 34.0001H193.348Z" fill="#101828"/>
</svg>
