<svg width="168" height="48" viewBox="0 0 168 48" fill="none" xmlns="http://www.w3.org/2000/svg">
<path fill-rule="evenodd" clip-rule="evenodd" d="M19.9655 3.44802C19.4605 3.34415 18.9396 3.34415 18.4345 3.44802C17.8507 3.56809 17.3289 3.86035 16.9141 4.0927L16.801 4.15587L2.74154 11.9667C2.70267 11.9883 2.66262 12.0103 2.62158 12.033C2.18245 12.2748 1.6303 12.5789 1.20628 13.0391C0.839687 13.4369 0.562258 13.9084 0.392548 14.422C0.196252 15.0161 0.198549 15.6465 0.200375 16.1478C0.200546 16.1947 0.200713 16.2404 0.200713 16.2849V31.7068C0.200713 31.7513 0.200546 31.797 0.200375 31.8438C0.198549 32.3452 0.196252 32.9755 0.392548 33.5697C0.562259 34.0833 0.839689 34.5548 1.20628 34.9526C1.6303 35.4127 2.18245 35.7168 2.62158 35.9587C2.66262 35.9813 2.70268 36.0034 2.74154 36.025L16.801 43.8358L16.9141 43.899C17.3289 44.1313 17.8507 44.4236 18.4345 44.5436C18.9396 44.6475 19.4605 44.6475 19.9655 44.5436C20.5493 44.4236 21.0711 44.1313 21.4859 43.899L21.599 43.8358L35.6585 36.025C35.6757 36.0154 35.6931 36.0058 35.7107 35.9961C35.733 35.9838 35.7555 35.9713 35.7784 35.9587C36.2176 35.7169 36.7697 35.4127 37.1937 34.9526C37.5603 34.5548 37.8378 34.0833 38.0075 33.5697C38.2038 32.9755 38.2015 32.3452 38.1996 31.8438C38.1995 31.797 38.1993 31.7513 38.1993 31.7068V16.2849C38.1993 16.2404 38.1995 16.1947 38.1996 16.1478C38.2015 15.6465 38.2038 15.0161 38.0075 14.422C37.8378 13.9084 37.5603 13.4369 37.1937 13.0391C36.7697 12.5789 36.2176 12.2748 35.7784 12.0329L35.7769 12.0321C35.7364 12.0098 35.6969 11.988 35.6585 11.9667L21.599 4.15586L21.4859 4.09269C21.0711 3.86035 20.5493 3.56809 19.9655 3.44802ZM18.6464 7.47754C18.9343 7.31759 19.0813 7.23676 19.1909 7.18388L19.2 7.17953L19.2091 7.18388C19.3187 7.23676 19.4657 7.31758 19.7536 7.47754L32.3871 14.4961L19.2 21.8223L6.01286 14.4962L18.6464 7.47754ZM4.00057 17.7251L17.3 25.1137L17.3001 39.7662L4.58692 32.7033C4.28302 32.5345 4.12786 32.4474 4.019 32.378L4.00981 32.3721L4.00912 32.3612C4.00136 32.2324 4.00057 32.0545 4.00057 31.7068V17.7251Z" fill="#101828"/>
<path d="M55.4911 30.3452H61.5391V33.9092H50.8741V14.9552H55.4911V30.3452Z" fill="#101828"/>
<path d="M65.7933 17.2772C64.9833 17.2772 64.3173 17.0432 63.7953 16.5752C63.2913 16.0892 63.0393 15.4952 63.0393 14.7932C63.0393 14.0732 63.2913 13.4792 63.7953 13.0112C64.3173 12.5252 64.9833 12.2822 65.7933 12.2822C66.5853 12.2822 67.2333 12.5252 67.7373 13.0112C68.2593 13.4792 68.5203 14.0732 68.5203 14.7932C68.5203 15.4952 68.2593 16.0892 67.7373 16.5752C67.2333 17.0432 66.5853 17.2772 65.7933 17.2772ZM68.0883 18.8432V33.9092H63.4713V18.8432H68.0883Z" fill="#101828"/>
<path d="M76.8882 18.6272C77.9502 18.6272 78.8772 18.8432 79.6692 19.2752C80.4792 19.7072 81.1002 20.2742 81.5322 20.9762V18.8432H86.1492V33.8822C86.1492 35.2682 85.8702 36.5192 85.3122 37.6352C84.7722 38.7692 83.9352 39.6692 82.8012 40.3352C81.6852 41.0012 80.2902 41.3342 78.6162 41.3342C76.3842 41.3342 74.5752 40.8032 73.1892 39.7412C71.8032 38.6972 71.0112 37.2752 70.8132 35.4752H75.3762C75.5202 36.0512 75.8622 36.5012 76.4022 36.8252C76.9422 37.1672 77.6082 37.3382 78.4002 37.3382C79.3542 37.3382 80.1102 37.0592 80.6682 36.5012C81.2442 35.9612 81.5322 35.0882 81.5322 33.8822V31.7492C81.0822 32.4512 80.4612 33.0272 79.6692 33.4772C78.8772 33.9092 77.9502 34.1252 76.8882 34.1252C75.6462 34.1252 74.5212 33.8102 73.5132 33.1802C72.5052 32.5322 71.7042 31.6232 71.1102 30.4532C70.5342 29.2652 70.2462 27.8972 70.2462 26.3492C70.2462 24.8012 70.5342 23.4422 71.1102 22.2722C71.7042 21.1022 72.5052 20.2022 73.5132 19.5722C74.5212 18.9422 75.6462 18.6272 76.8882 18.6272ZM81.5322 26.3762C81.5322 25.2242 81.2082 24.3152 80.5602 23.6492C79.9302 22.9832 79.1562 22.6502 78.2382 22.6502C77.3202 22.6502 76.5372 22.9832 75.8892 23.6492C75.2592 24.2972 74.9442 25.1972 74.9442 26.3492C74.9442 27.5012 75.2592 28.4192 75.8892 29.1032C76.5372 29.7692 77.3202 30.1022 78.2382 30.1022C79.1562 30.1022 79.9302 29.7692 80.5602 29.1032C81.2082 28.4372 81.5322 27.5282 81.5322 26.3762Z" fill="#101828"/>
<path d="M98.4804 18.6812C100.208 18.6812 101.594 19.2572 102.638 20.4092C103.682 21.5432 104.204 23.1092 104.204 25.1072V33.9092H99.6144V25.7282C99.6144 24.7202 99.3534 23.9372 98.8314 23.3792C98.3094 22.8212 97.6074 22.5422 96.7254 22.5422C95.8434 22.5422 95.1414 22.8212 94.6194 23.3792C94.0974 23.9372 93.8364 24.7202 93.8364 25.7282V33.9092H89.2194V13.9292H93.8364V20.8682C94.3044 20.2022 94.9434 19.6712 95.7534 19.2752C96.5634 18.8792 97.4724 18.6812 98.4804 18.6812Z" fill="#101828"/>
<path d="M115.54 29.9942V33.9092H113.191C111.517 33.9092 110.212 33.5042 109.276 32.6942C108.34 31.8662 107.872 30.5252 107.872 28.6712V22.6772H106.036V18.8432H107.872V15.1712H112.489V18.8432H115.513V22.6772H112.489V28.7252C112.489 29.1752 112.597 29.4992 112.813 29.6972C113.029 29.8952 113.389 29.9942 113.893 29.9942H115.54Z" fill="#101828"/>
<path d="M122.458 20.9762C122.89 20.2742 123.511 19.7072 124.321 19.2752C125.131 18.8432 126.058 18.6272 127.102 18.6272C128.344 18.6272 129.469 18.9422 130.477 19.5722C131.485 20.2022 132.277 21.1022 132.853 22.2722C133.447 23.4422 133.744 24.8012 133.744 26.3492C133.744 27.8972 133.447 29.2652 132.853 30.4532C132.277 31.6232 131.485 32.5322 130.477 33.1802C129.469 33.8102 128.344 34.1252 127.102 34.1252C126.04 34.1252 125.113 33.9182 124.321 33.5042C123.529 33.0722 122.908 32.5052 122.458 31.8032V33.9092H117.841V13.9292H122.458V20.9762ZM129.046 26.3492C129.046 25.1972 128.722 24.2972 128.074 23.6492C127.444 22.9832 126.661 22.6502 125.725 22.6502C124.807 22.6502 124.024 22.9832 123.376 23.6492C122.746 24.3152 122.431 25.2242 122.431 26.3762C122.431 27.5282 122.746 28.4372 123.376 29.1032C124.024 29.7692 124.807 30.1022 125.725 30.1022C126.643 30.1022 127.426 29.7692 128.074 29.1032C128.722 28.4192 129.046 27.5012 129.046 26.3492Z" fill="#101828"/>
<path d="M142.755 34.1252C141.279 34.1252 139.947 33.8102 138.759 33.1802C137.589 32.5502 136.662 31.6502 135.978 30.4802C135.312 29.3102 134.979 27.9422 134.979 26.3762C134.979 24.8282 135.321 23.4692 136.005 22.2992C136.689 21.1112 137.625 20.2022 138.813 19.5722C140.001 18.9422 141.333 18.6272 142.809 18.6272C144.285 18.6272 145.617 18.9422 146.805 19.5722C147.993 20.2022 148.929 21.1112 149.613 22.2992C150.297 23.4692 150.639 24.8282 150.639 26.3762C150.639 27.9242 150.288 29.2922 149.586 30.4802C148.902 31.6502 147.957 32.5502 146.751 33.1802C145.563 33.8102 144.231 34.1252 142.755 34.1252ZM142.755 30.1292C143.637 30.1292 144.384 29.8052 144.996 29.1572C145.626 28.5092 145.941 27.5822 145.941 26.3762C145.941 25.1702 145.635 24.2432 145.023 23.5952C144.429 22.9472 143.691 22.6232 142.809 22.6232C141.909 22.6232 141.162 22.9472 140.568 23.5952C139.974 24.2252 139.677 25.1522 139.677 26.3762C139.677 27.5822 139.965 28.5092 140.541 29.1572C141.135 29.8052 141.873 30.1292 142.755 30.1292Z" fill="#101828"/>
<path d="M161.728 33.9092L158.839 29.7242L156.409 33.9092H151.414L156.382 26.2142L151.279 18.8432H156.463L159.352 23.0012L161.782 18.8432H166.777L161.728 26.4302L166.912 33.9092H161.728Z" fill="#101828"/>
</svg>
