<svg width="182" height="48" viewBox="0 0 182 48" fill="none" xmlns="http://www.w3.org/2000/svg">
<g clip-path="url(#clip0_3488_326)">
<path d="M27.2694 4.12169L23.0486 2.99072L19.4917 16.2654L16.2804 4.28093L12.0595 5.4119L15.5291 18.3602L6.88724 9.71841L3.79738 12.8083L13.2764 22.2874L1.47179 19.1243L0.34082 23.3451L13.2388 26.8011C13.0912 26.1642 13.0131 25.5006 13.0131 24.8187C13.0131 19.992 16.9258 16.0792 21.7525 16.0792C26.5792 16.0792 30.492 19.992 30.492 24.8187C30.492 25.4962 30.4148 26.1557 30.269 26.7889L41.9909 29.9297L43.1218 25.709L30.1725 22.2392L41.9779 19.0759L40.8469 14.8551L27.8981 18.3247L36.54 9.68293L33.4501 6.59307L24.1026 15.9406L27.2694 4.12169Z" fill="#FF4405"/>
<path d="M30.2567 26.838C29.8948 28.368 29.1308 29.7424 28.0825 30.8435L36.5745 39.3357L39.6644 36.2458L30.2567 26.838Z" fill="#FF4405"/>
<path d="M27.9968 30.9323C26.9359 32.0159 25.5951 32.8245 24.0916 33.2413L27.1817 44.7735L31.4025 43.6425L27.9968 30.9323Z" fill="#FF4405"/>
<path d="M23.934 33.2835C23.2364 33.4628 22.5053 33.5581 21.7518 33.5581C20.9446 33.5581 20.1629 33.4486 19.4208 33.2437L16.3279 44.7866L20.5487 45.9175L23.934 33.2835Z" fill="#FF4405"/>
<path d="M19.2715 33.2012C17.791 32.7638 16.4741 31.9448 15.4348 30.8581L6.92192 39.3711L10.0118 42.4609L19.2715 33.2012Z" fill="#FF4405"/>
<path d="M15.3647 30.7829C14.3432 29.6893 13.5992 28.3333 13.2451 26.827L1.48486 29.9781L2.61582 34.1989L15.3647 30.7829Z" fill="#FF4405"/>
</g>
<path d="M68.52 12.9092V28.1192L58.77 12.9092H54.87V33.9092H58.77V18.8192L68.52 33.9092H72.42V12.9092H68.52Z" fill="#101828"/>
<path d="M74.1773 16.8392H78.1973V12.9092H74.1773V16.8392ZM74.2373 33.9092V18.9092H78.1373V33.9092H74.2373Z" fill="#101828"/>
<path d="M94.9174 26.4092C94.9174 21.2192 91.2274 18.7592 87.3274 18.7292C83.3974 18.6992 79.7674 21.2192 79.7674 26.4092C79.7674 31.5992 83.3974 34.1192 87.3274 34.0892C90.8974 34.0592 93.3574 32.4092 94.4974 29.6792L91.4674 28.4192C90.5374 30.2792 89.0674 30.9392 87.3274 30.9692C85.8274 30.9992 84.1174 30.2792 83.7574 27.6092H94.8274C94.8874 27.2192 94.9174 26.8292 94.9174 26.4092ZM87.3274 21.8192C88.8274 21.8492 90.3574 22.6592 90.8374 24.8192H83.8174C84.3274 22.6292 85.8574 21.7892 87.3274 21.8192Z" fill="#101828"/>
<path d="M103.931 21.6992V18.7292H101.471V14.7092L97.5705 15.9092V18.7292H95.1105V21.6992H97.5705V29.4692C97.5705 32.4092 97.8105 33.9092 102.371 33.9092H103.421V30.4892H102.371C101.651 30.4892 101.471 30.3692 101.471 29.4692V21.6992H103.931Z" fill="#101828"/>
<path d="M109.726 30.6392L118.006 22.1792V18.9092H105.586V22.1792H113.626L105.346 30.6392V33.9092H118.096V30.6392H109.726Z" fill="#101828"/>
<path d="M119.494 29.6792L123.424 29.0792C123.694 30.5792 125.464 31.1492 126.544 31.1492C127.654 31.1492 129.574 30.9092 129.574 29.1092C129.574 25.5992 119.944 29.9792 119.944 23.2592C119.944 18.9392 124.954 18.6992 126.544 18.6992C128.044 18.6992 132.394 18.9392 133.294 22.4192L129.574 23.1992C129.244 21.6092 127.564 21.3092 126.664 21.3092C125.764 21.3092 123.844 21.5192 123.844 23.2592C123.844 26.7392 133.474 22.2992 133.474 29.1092C133.474 33.6992 128.194 34.0892 126.544 34.0892C125.044 34.0892 120.274 33.6992 119.494 29.6792Z" fill="#101828"/>
<path d="M138.54 26.4092C138.54 30.0692 140.49 31.1792 142.53 31.1492C144.36 31.1192 145.62 30.3692 146.37 28.2692L149.58 29.8292C148.41 32.8892 145.56 34.0592 142.53 34.0892C138.6 34.1192 134.64 31.5992 134.64 26.4092C134.64 21.2192 138.6 18.6992 142.53 18.7292C145.56 18.7592 148.41 19.9292 149.58 22.9892L146.37 24.5492C145.62 22.4492 144.36 21.6992 142.53 21.6692C140.49 21.6392 138.54 22.7492 138.54 26.4092Z" fill="#101828"/>
<path d="M160.05 18.6692C158.04 18.6692 156.21 19.7192 155.04 21.9692V12.9092H151.14V33.9092H155.04V28.5992C155.04 21.7292 157.89 21.1592 158.94 21.1592C160.62 21.1592 160.86 22.8992 160.86 25.4492V33.9092H164.76V25.4492C164.76 22.2692 164.25 18.6692 160.05 18.6692Z" fill="#101828"/>
<path d="M181.226 26.4092C181.226 21.2192 177.536 18.7592 173.636 18.7292C169.706 18.6992 166.076 21.2192 166.076 26.4092C166.076 31.5992 169.706 34.1192 173.636 34.0892C177.206 34.0592 179.666 32.4092 180.806 29.6792L177.776 28.4192C176.846 30.2792 175.376 30.9392 173.636 30.9692C172.136 30.9992 170.426 30.2792 170.066 27.6092H181.136C181.196 27.2192 181.226 26.8292 181.226 26.4092ZM173.636 21.8192C175.136 21.8492 176.666 22.6592 177.146 24.8192H170.126C170.636 22.6292 172.166 21.7892 173.636 21.8192Z" fill="#101828"/>
<defs>
<clipPath id="clip0_3488_326">
<rect width="44" height="44" fill="white" transform="translate(0 2)"/>
</clipPath>
</defs>
</svg>
