<svg width="167" height="48" viewBox="0 0 167 48" fill="none" xmlns="http://www.w3.org/2000/svg">
<circle cx="22.6" cy="24.25" r="20.5" stroke="#6927DA" stroke-width="3"/>
<path d="M30.7317 32.3817C26.5923 36.5211 21.9028 39.2233 17.7264 40.2972C13.5123 41.3808 10.1157 40.7571 8.10429 38.7456C6.09289 36.7342 5.4691 33.3376 6.55272 29.1235C7.62665 24.9472 10.3289 20.2576 14.4683 16.1182C18.6077 11.9788 23.2972 9.27662 27.4735 8.2027C31.6876 7.11907 35.0843 7.74286 37.0957 9.75427C39.1071 11.7657 39.7309 15.1623 38.6472 19.3764C37.5733 23.5528 34.8711 28.2423 30.7317 32.3817Z" stroke="#6927DA" stroke-width="3"/>
<path d="M30.7315 16.1182C34.8709 20.2576 37.5731 24.9471 38.647 29.1235C39.7307 33.3376 39.1069 36.7342 37.0955 38.7456C35.0841 40.757 31.6874 41.3808 27.4733 40.2972C23.297 39.2233 18.6074 36.5211 14.4681 32.3817C10.3287 28.2423 7.62644 23.5528 6.55252 19.3764C5.4689 15.1623 6.09268 11.7657 8.10409 9.75426C10.1155 7.74285 13.5121 7.11906 17.7262 8.20269C21.9026 9.27661 26.5921 11.9788 30.7315 16.1182Z" stroke="#6927DA" stroke-width="3"/>
<path d="M63.45 34.2401C68.16 34.2401 71.34 31.7801 71.34 27.8501C71.34 19.5401 60.3 23.0801 60.3 18.7001C60.3 17.4701 61.41 16.6301 63.18 16.6301C65.19 16.6301 66.45 17.7101 66.6 19.3601H70.89C70.77 15.3701 67.71 12.7601 63.18 12.7601C58.92 12.7601 55.92 15.2201 55.92 18.7001C55.92 26.9501 66.81 23.8001 66.81 27.9101C66.81 29.5001 65.46 30.3401 63.45 30.3401C61.23 30.3401 59.82 28.9901 59.64 26.8601H55.32C55.5 31.3301 58.68 34.2401 63.45 34.2401Z" fill="#101828"/>
<path d="M72.3602 40.1201H76.5302V32.6501C77.3402 33.6701 78.8102 34.2401 80.5202 34.2401C84.8702 34.2401 87.8102 31.1501 87.8102 26.4401C87.8102 21.7301 85.1102 18.6401 80.8802 18.6401C78.9302 18.6401 77.4302 19.3601 76.5302 20.5301V18.8801H72.3602V40.1201ZM80.0102 30.6401C77.7602 30.6401 76.2902 28.9601 76.2902 26.4401C76.2902 23.8901 77.7602 22.2101 80.0102 22.2101C82.2002 22.2101 83.7002 23.8901 83.7002 26.4401C83.7002 28.9601 82.2002 30.6401 80.0102 30.6401Z" fill="#101828"/>
<path d="M88.8192 34.0001H92.9892V25.7201C92.9892 23.7701 94.2792 22.3601 96.1092 22.3601C97.8492 22.3601 99.0492 23.6801 99.0492 25.5101V34.0001H103.219V24.5801C103.219 21.1001 100.999 18.6401 97.6092 18.6401C95.5092 18.6401 93.8592 19.5101 92.9892 20.9801V12.3101H88.8192V34.0001Z" fill="#101828"/>
<path d="M114.885 28.8701C114.555 30.1601 113.445 30.8201 111.765 30.8201C109.665 30.8201 108.315 29.5001 108.015 27.3701H118.875C118.905 27.0401 118.935 26.5901 118.935 26.0201C118.935 22.5701 116.805 18.6401 111.465 18.6401C106.335 18.6401 103.995 22.5701 103.995 26.4101C103.995 30.2201 106.635 34.2401 111.765 34.2401C115.485 34.2401 118.365 32.1401 118.965 28.8701H114.885ZM111.465 21.7001C113.475 21.7001 114.645 23.0501 114.765 24.7301H108.075C108.435 22.6301 109.575 21.7001 111.465 21.7001Z" fill="#101828"/>
<path d="M129.871 22.3601V18.8801H127.719C125.889 18.8801 124.749 19.5101 123.939 21.4001V18.8801H119.739V34.0001H123.939V26.6501C123.939 24.0701 124.869 22.3601 126.939 22.3601H129.871Z" fill="#101828"/>
<path d="M144.271 18.8801H140.071V27.1601C140.071 29.0801 138.781 30.5201 136.951 30.5201C135.241 30.5201 134.041 29.2001 134.041 27.3701V18.8801H129.871V28.3001C129.871 31.7501 132.091 34.2401 135.481 34.2401C137.551 34.2401 139.231 33.3401 140.071 31.9001V34.0001H144.271V18.8801Z" fill="#101828"/>
<path d="M146.071 34.0001H150.241V12.3101H146.071V34.0001Z" fill="#101828"/>
<path d="M162.146 28.8701C161.816 30.1601 160.706 30.8201 159.026 30.8201C156.926 30.8201 155.576 29.5001 155.276 27.3701H166.136C166.166 27.0401 166.196 26.5901 166.196 26.0201C166.196 22.5701 164.066 18.6401 158.726 18.6401C153.596 18.6401 151.256 22.5701 151.256 26.4101C151.256 30.2201 153.896 34.2401 159.026 34.2401C162.746 34.2401 165.626 32.1401 166.226 28.8701H162.146ZM158.726 21.7001C160.736 21.7001 161.906 23.0501 162.026 24.7301H155.336C155.696 22.6301 156.836 21.7001 158.726 21.7001Z" fill="#101828"/>
</svg>
